<svg width="107" height="31" viewBox="0 0 107 31" fill="none" xmlns="http://www.w3.org/2000/svg">
<path d="M17.1136 8.18182C16.9716 6.19318 16.2093 4.55966 14.8267 3.28125C13.4536 2.00284 11.6402 1.36364 9.38636 1.36364C7.90909 1.36364 6.58807 1.64773 5.4233 2.21591C4.25852 2.78409 3.33996 3.56534 2.66761 4.55966C1.99527 5.54451 1.65909 6.67614 1.65909 7.95455C1.65909 8.69318 1.7822 9.375 2.02841 10C2.27462 10.625 2.64867 11.1979 3.15057 11.7188C3.66193 12.2301 4.30114 12.6941 5.06818 13.1108C5.8447 13.518 6.75379 13.8826 7.79545 14.2045L11.0909 15.2273C12.3504 15.6155 13.4394 16.0511 14.358 16.5341C15.2765 17.017 16.0341 17.5616 16.6307 18.1676C17.2367 18.7642 17.6866 19.4318 17.9801 20.1705C18.2737 20.8996 18.4205 21.714 18.4205 22.6136C18.4205 24.1288 18.0322 25.4782 17.2557 26.6619C16.4792 27.8456 15.3949 28.7737 14.0028 29.446C12.6108 30.1184 10.9962 30.4545 9.15909 30.4545C7.38826 30.4545 5.83996 30.1468 4.5142 29.5312C3.18845 28.9062 2.13731 28.0492 1.3608 26.9602C0.59375 25.8617 0.162879 24.6023 0.0681819 23.1818H0.977273C1.07197 24.4318 1.46496 25.535 2.15625 26.4915C2.84754 27.4479 3.78504 28.196 4.96875 28.7358C6.16193 29.2756 7.55871 29.5455 9.15909 29.5455C10.8258 29.5455 12.2841 29.2566 13.5341 28.679C14.7936 28.0919 15.7689 27.2775 16.4602 26.2358C17.161 25.1941 17.5114 23.9867 17.5114 22.6136C17.5114 21.572 17.2841 20.6581 16.8295 19.8722C16.375 19.0767 15.66 18.3759 14.6847 17.7699C13.7093 17.1638 12.4356 16.6193 10.8636 16.1364L7.56818 15.1136C5.28599 14.3939 3.5767 13.4422 2.44034 12.2585C1.31345 11.0748 0.75 9.64015 0.75 7.95455C0.75 6.52462 1.12405 5.24621 1.87216 4.11932C2.62027 2.98295 3.64299 2.08807 4.94034 1.43466C6.24716 0.781249 7.72917 0.454545 9.38636 0.454545C11.053 0.454545 12.5161 0.785984 13.7756 1.44886C15.035 2.11174 16.0341 3.02557 16.7727 4.19034C17.5114 5.35511 17.928 6.68561 18.0227 8.18182H17.1136ZM28.0121 0.90909V30H25.3558V0.90909H28.0121ZM35.0788 30V0.90909H45.4482C47.7019 0.90909 49.5722 1.29735 51.0589 2.07386C52.5552 2.85038 53.6726 3.92519 54.4112 5.2983C55.1499 6.66193 55.5192 8.23864 55.5192 10.0284C55.5192 11.8087 55.1451 13.3759 54.397 14.7301C53.6584 16.0748 52.541 17.1212 51.0447 17.8693C49.558 18.6174 47.6877 18.9915 45.4339 18.9915H37.5788V15.2131H45.0362C46.4567 15.2131 47.612 15.0095 48.5021 14.6023C49.4018 14.1951 50.0599 13.6032 50.4766 12.8267C50.8932 12.0502 51.1016 11.1174 51.1016 10.0284C51.1016 8.92992 50.8885 7.97822 50.4624 7.1733C50.0457 6.36837 49.3875 5.75284 48.4879 5.3267C47.5978 4.8911 46.4283 4.6733 44.9794 4.6733H39.468V30H35.0788ZM49.4396 16.875L56.6271 30H51.6271L44.5817 16.875H49.4396ZM60.1925 30V0.90909H66.343V13.7358H66.7266L77.1953 0.90909H84.5675L73.772 13.9347L84.6953 30H77.3374L69.3686 18.0398L66.343 21.733V30H60.1925ZM87.1172 30V0.90909H95.0149V23.6364H106.776V30H87.1172Z" fill="url(#paint0_linear_2137_6744)"/>
<defs>
<linearGradient id="paint0_linear_2137_6744" x1="-3" y1="-3.00002" x2="110.348" y2="2.7267" gradientUnits="userSpaceOnUse">
<stop stop-color="#1DE99B"/>
<stop offset="1" stop-color="#0063FB"/>
</linearGradient>
</defs>
</svg>
