<svg width="46" height="10" viewBox="0 0 46 10" fill="none" xmlns="http://www.w3.org/2000/svg">
<path d="M2.0983 6.875C2.89163 6.875 3.5333 6.21 3.5333 5.39333C3.5333 4.6 2.89163 3.95833 2.0983 3.95833C1.28163 3.95833 0.616633 4.6 0.616633 5.39333C0.616633 6.21 1.28163 6.875 2.0983 6.875ZM15.4674 9.65167C17.8357 9.65167 19.7024 7.785 19.7024 5.41667C19.7024 3.04833 17.8357 1.18167 15.4674 1.18167C13.1107 1.18167 11.2324 3.04833 11.2324 5.41667C11.2324 7.785 13.1107 9.65167 15.4674 9.65167ZM15.4674 8.345C13.8341 8.345 12.5741 7.09667 12.5741 5.41667C12.5741 3.73667 13.8341 2.48833 15.4674 2.48833C17.1007 2.48833 18.3607 3.73667 18.3607 5.41667C18.3607 7.09667 17.1007 8.345 15.4674 8.345ZM23.9129 3.515C23.1195 3.515 22.4895 3.80667 22.1045 4.41333V3.66667H20.8445V9.5H22.1045V6.37333C22.1045 5.18333 22.7579 4.69333 23.5862 4.69333C24.3795 4.69333 24.8929 5.16 24.8929 6.04667V9.5H26.1529V5.91833C26.1529 4.40167 25.2195 3.515 23.9129 3.515ZM27.5096 9.5H28.7696V0.983333H27.5096V9.5ZM30.8626 2.79167C31.3059 2.79167 31.6676 2.41833 31.6676 1.98667C31.6676 1.54333 31.3059 1.18167 30.8626 1.18167C30.4192 1.18167 30.0576 1.54333 30.0576 1.98667C30.0576 2.41833 30.4192 2.79167 30.8626 2.79167ZM30.2326 9.5H31.4926V3.66667H30.2326V9.5ZM36.0239 3.515C35.2305 3.515 34.6005 3.80667 34.2155 4.41333V3.66667H32.9555V9.5H34.2155V6.37333C34.2155 5.18333 34.8689 4.69333 35.6972 4.69333C36.4905 4.69333 37.0039 5.16 37.0039 6.04667V9.5H38.2639V5.91833C38.2639 4.40167 37.3305 3.515 36.0239 3.515ZM40.6122 7.12H45.2556C45.2789 6.95667 45.3022 6.77 45.3022 6.595C45.3022 4.915 44.1122 3.515 42.3739 3.515C40.5422 3.515 39.2939 4.85667 39.2939 6.58333C39.2939 8.33333 40.5422 9.65167 42.4672 9.65167C43.6106 9.65167 44.4856 9.17333 45.0222 8.38L43.9839 7.77333C43.7039 8.18167 43.1789 8.49667 42.4789 8.49667C41.5456 8.49667 40.8106 8.03 40.6122 7.12ZM40.6006 6.09333C40.7756 5.21833 41.4172 4.65833 42.3622 4.65833C43.1206 4.65833 43.8556 5.09 44.0306 6.09333H40.6006Z" fill="#00CB7D"/>
</svg>
